<mxfile host="app.diagrams.net" modified="2023-08-15T03:09:14.674Z" agent="Mozilla/5.0 (Macintosh; Intel Mac OS X 10_15_7) AppleWebKit/537.36 (KHTML, like Gecko) Chrome/115.0.0.0 Safari/537.36" version="21.6.5" etag="NnNLFG0A5yZLyw4nXm9p" type="github">
  <diagram name="Page-1" id="ePY1UWoLqQAZ4JRhebsc">
    <mxGraphModel>
      <root>
        <mxCell id="0" />
        <mxCell id="1" parent="0" />
      </root>
    </mxGraphModel>
  </diagram>
</mxfile>
